<svg width="36" height="37" viewBox="0 0 36 37" fill="none" xmlns="http://www.w3.org/2000/svg">
<rect y="0.5" width="36" height="36" rx="9" fill="#F6F6F6"/>
<path d="M18.0001 12C20.7615 12 23.0001 14.2386 23.0001 17V19.2396C23.0001 19.7294 23.1798 20.2022 23.5052 20.5683L24.7809 22.0035C25.6408 22.9708 24.9541 24.5 23.6598 24.5H12.3403C11.046 24.5 10.3593 22.9708 11.2192 22.0035L12.4949 20.5683C12.8203 20.2022 13 19.7294 13 19.2396L13.0001 17C13.0001 14.2386 15.2386 12 18.0001 12ZM18.0001 12V9.5M17 27.5H19" stroke="#454545" stroke-width="1.4" stroke-linecap="round" stroke-linejoin="round"/>
<rect x="19" y="4.5" width="14" height="12" rx="2" fill="#EA3030"/>
<path d="M25.52 13.596C25.104 13.596 24.7387 13.516 24.424 13.356C24.1147 13.1907 23.8747 12.972 23.704 12.7C23.5333 12.4227 23.448 12.116 23.448 11.78C23.448 11.396 23.552 11.0653 23.76 10.788C23.9733 10.5053 24.272 10.3 24.656 10.172L24.616 10.412C24.3333 10.3053 24.1093 10.1267 23.944 9.876C23.784 9.62 23.704 9.34 23.704 9.036C23.704 8.732 23.7813 8.46 23.936 8.22C24.096 7.98 24.312 7.79067 24.584 7.652C24.8613 7.51333 25.1733 7.444 25.52 7.444C25.872 7.444 26.184 7.51333 26.456 7.652C26.728 7.78533 26.9413 7.972 27.096 8.212C27.256 8.452 27.336 8.72667 27.336 9.036C27.336 9.35067 27.2533 9.63333 27.088 9.884C26.928 10.1293 26.7093 10.3053 26.432 10.412L26.392 10.172C26.776 10.3053 27.0747 10.5107 27.288 10.788C27.5013 11.0653 27.608 11.396 27.608 11.78C27.608 12.116 27.52 12.4227 27.344 12.7C27.1733 12.972 26.9307 13.1907 26.616 13.356C26.3013 13.516 25.936 13.596 25.52 13.596ZM25.52 12.796C25.7493 12.796 25.9493 12.7533 26.12 12.668C26.2907 12.5773 26.424 12.4547 26.52 12.3C26.616 12.1453 26.664 11.964 26.664 11.756C26.664 11.548 26.616 11.3667 26.52 11.212C26.424 11.0573 26.2907 10.9373 26.12 10.852C25.9493 10.7667 25.7493 10.724 25.52 10.724C25.296 10.724 25.0987 10.7667 24.928 10.852C24.7573 10.9373 24.624 11.0573 24.528 11.212C24.432 11.3667 24.384 11.548 24.384 11.756C24.384 11.964 24.432 12.1453 24.528 12.3C24.624 12.4547 24.7573 12.5773 24.928 12.668C25.0987 12.7533 25.296 12.796 25.52 12.796ZM25.52 9.924C25.6907 9.924 25.84 9.88933 25.968 9.82C26.1013 9.74533 26.2053 9.644 26.28 9.516C26.3547 9.388 26.392 9.244 26.392 9.084C26.392 8.91867 26.3547 8.77467 26.28 8.652C26.2053 8.524 26.1013 8.42533 25.968 8.356C25.84 8.28133 25.6907 8.244 25.52 8.244C25.3547 8.244 25.2053 8.28133 25.072 8.356C24.9387 8.42533 24.8347 8.524 24.76 8.652C24.6853 8.77467 24.648 8.91867 24.648 9.084C24.648 9.244 24.6853 9.388 24.76 9.516C24.8347 9.644 24.9387 9.74533 25.072 9.82C25.2053 9.88933 25.3547 9.924 25.52 9.924Z" fill="white"/>
</svg>
