<svg width="140" height="40" viewBox="0 0 140 40" fill="none" xmlns="http://www.w3.org/2000/svg">
<rect width="140" height="40" rx="12" fill="#1A71F6"/>
<path d="M13.383 25.5V15.07H14.867L20.607 22.798L19.837 22.952V15.07H21.741V25.5H20.243L14.587 17.716L15.287 17.562V25.5H13.383ZM27.218 25.668C26.434 25.668 25.748 25.4907 25.16 25.136C24.572 24.7813 24.1146 24.3007 23.788 23.694C23.4613 23.0873 23.298 22.4153 23.298 21.678C23.298 20.9127 23.4613 20.236 23.788 19.648C24.124 19.0507 24.5766 18.5793 25.146 18.234C25.7246 17.8887 26.3686 17.716 27.078 17.716C27.6753 17.716 28.198 17.814 28.646 18.01C29.1033 18.206 29.4906 18.4767 29.808 18.822C30.1253 19.1673 30.368 19.564 30.536 20.012C30.704 20.4507 30.788 20.9267 30.788 21.44C30.788 21.5707 30.7786 21.706 30.76 21.846C30.7506 21.986 30.7273 22.1073 30.69 22.21H24.81V20.81H29.654L28.786 21.468C28.87 21.0387 28.8466 20.656 28.716 20.32C28.5946 19.984 28.3893 19.718 28.1 19.522C27.82 19.326 27.4793 19.228 27.078 19.228C26.6953 19.228 26.3546 19.326 26.056 19.522C25.7573 19.7087 25.5286 19.9887 25.37 20.362C25.2206 20.726 25.1646 21.1693 25.202 21.692C25.1646 22.1587 25.2253 22.574 25.384 22.938C25.552 23.2927 25.7946 23.568 26.112 23.764C26.4386 23.96 26.812 24.058 27.232 24.058C27.652 24.058 28.0066 23.9693 28.296 23.792C28.5946 23.6147 28.828 23.3767 28.996 23.078L30.48 23.806C30.3306 24.17 30.0973 24.492 29.78 24.772C29.4626 25.052 29.0846 25.2713 28.646 25.43C28.2166 25.5887 27.7406 25.668 27.218 25.668ZM34.0962 25.5L31.4782 17.884H33.4102L35.3282 23.666L34.6562 23.652L36.7002 17.884H38.3242L40.3542 23.652L39.6822 23.666L41.6002 17.884H43.5322L40.9142 25.5H39.2762L37.2042 19.466H37.8202L35.7202 25.5H34.0962ZM47.1799 25.5V15.07H51.0719C51.7812 15.07 52.4065 15.2007 52.9479 15.462C53.4985 15.714 53.9279 16.0873 54.2359 16.582C54.5439 17.0673 54.6979 17.66 54.6979 18.36C54.6979 19.0507 54.5392 19.6433 54.2219 20.138C53.9139 20.6233 53.4892 20.9967 52.9479 21.258C52.4065 21.5193 51.7812 21.65 51.0719 21.65H49.0839V25.5H47.1799ZM49.0839 19.97H51.0999C51.4452 19.97 51.7439 19.9047 51.9959 19.774C52.2479 19.634 52.4439 19.4427 52.5839 19.2C52.7239 18.9573 52.7939 18.6773 52.7939 18.36C52.7939 18.0333 52.7239 17.7533 52.5839 17.52C52.4439 17.2773 52.2479 17.0907 51.9959 16.96C51.7439 16.82 51.4452 16.75 51.0999 16.75H49.0839V19.97ZM56.104 25.5V17.884H57.826V19.578L57.686 19.326C57.8633 18.7567 58.1387 18.36 58.512 18.136C58.8947 17.912 59.352 17.8 59.884 17.8H60.332V19.424H59.674C59.1513 19.424 58.7313 19.5873 58.414 19.914C58.0967 20.2313 57.938 20.6793 57.938 21.258V25.5H56.104ZM65.0643 25.668C64.3177 25.668 63.6363 25.4953 63.0203 25.15C62.4137 24.8047 61.9283 24.3333 61.5643 23.736C61.2097 23.1387 61.0323 22.4573 61.0323 21.692C61.0323 20.9267 61.2097 20.2453 61.5643 19.648C61.9283 19.0507 62.4137 18.5793 63.0203 18.234C63.627 17.8887 64.3083 17.716 65.0643 17.716C65.811 17.716 66.4877 17.8887 67.0943 18.234C67.701 18.5793 68.1817 19.0507 68.5363 19.648C68.9003 20.236 69.0823 20.9173 69.0823 21.692C69.0823 22.4573 68.9003 23.1387 68.5363 23.736C68.1723 24.3333 67.687 24.8047 67.0803 25.15C66.4737 25.4953 65.8017 25.668 65.0643 25.668ZM65.0643 23.988C65.475 23.988 65.8343 23.89 66.1423 23.694C66.4597 23.498 66.707 23.2273 66.8843 22.882C67.071 22.5273 67.1643 22.1307 67.1643 21.692C67.1643 21.244 67.071 20.852 66.8843 20.516C66.707 20.1707 66.4597 19.9 66.1423 19.704C65.8343 19.4987 65.475 19.396 65.0643 19.396C64.6443 19.396 64.2757 19.4987 63.9583 19.704C63.641 19.9 63.389 20.1707 63.2023 20.516C63.025 20.852 62.9363 21.244 62.9363 21.692C62.9363 22.1307 63.025 22.5273 63.2023 22.882C63.389 23.2273 63.641 23.498 63.9583 23.694C64.2757 23.89 64.6443 23.988 65.0643 23.988ZM74.0151 25.668C73.2778 25.668 72.6198 25.4953 72.0411 25.15C71.4625 24.7953 71.0051 24.3147 70.6691 23.708C70.3331 23.1013 70.1651 22.4293 70.1651 21.692C70.1651 20.9453 70.3331 20.2733 70.6691 19.676C71.0051 19.0787 71.4625 18.6027 72.0411 18.248C72.6291 17.8933 73.2825 17.716 74.0011 17.716C74.5798 17.716 75.0931 17.8327 75.5411 18.066C75.9985 18.29 76.3578 18.6073 76.6191 19.018L76.3391 19.396V14.902H78.1731V25.5H76.4371V24.03L76.6331 24.394C76.3718 24.8047 76.0078 25.122 75.5411 25.346C75.0745 25.5607 74.5658 25.668 74.0151 25.668ZM74.2111 23.988C74.6311 23.988 74.9998 23.89 75.3171 23.694C75.6345 23.498 75.8818 23.2273 76.0591 22.882C76.2458 22.5367 76.3391 22.14 76.3391 21.692C76.3391 21.2533 76.2458 20.8613 76.0591 20.516C75.8818 20.1613 75.6345 19.886 75.3171 19.69C74.9998 19.494 74.6311 19.396 74.2111 19.396C73.8005 19.396 73.4318 19.4987 73.1051 19.704C72.7785 19.9 72.5218 20.1707 72.3351 20.516C72.1578 20.852 72.0691 21.244 72.0691 21.692C72.0691 22.14 72.1578 22.5367 72.3351 22.882C72.5218 23.2273 72.7785 23.498 73.1051 23.694C73.4318 23.89 73.8005 23.988 74.2111 23.988ZM82.5954 25.668C82.0074 25.668 81.4941 25.5373 81.0554 25.276C80.6261 25.0147 80.2947 24.6507 80.0614 24.184C79.8374 23.7173 79.7254 23.1713 79.7254 22.546V17.884H81.5594V22.392C81.5594 22.7093 81.6201 22.9893 81.7414 23.232C81.8721 23.4653 82.0541 23.652 82.2874 23.792C82.5301 23.9227 82.8007 23.988 83.0994 23.988C83.3981 23.988 83.6641 23.9227 83.8974 23.792C84.1307 23.652 84.3127 23.4607 84.4434 23.218C84.5741 22.9753 84.6394 22.686 84.6394 22.35V17.884H86.4734V25.5H84.7374V24.002L84.8914 24.268C84.7141 24.7347 84.4201 25.0847 84.0094 25.318C83.6081 25.5513 83.1367 25.668 82.5954 25.668ZM91.8462 25.668C91.0902 25.668 90.4089 25.4953 89.8022 25.15C89.2049 24.7953 88.7336 24.3193 88.3882 23.722C88.0429 23.1153 87.8702 22.434 87.8702 21.678C87.8702 20.922 88.0429 20.2453 88.3882 19.648C88.7336 19.0507 89.2049 18.5793 89.8022 18.234C90.4089 17.8887 91.0902 17.716 91.8462 17.716C92.3876 17.716 92.8916 17.814 93.3582 18.01C93.8249 18.1967 94.2262 18.458 94.5622 18.794C94.9076 19.1207 95.1549 19.5127 95.3042 19.97L93.6942 20.67C93.5542 20.2873 93.3162 19.9793 92.9802 19.746C92.6536 19.5127 92.2756 19.396 91.8462 19.396C91.4449 19.396 91.0856 19.494 90.7682 19.69C90.4602 19.886 90.2176 20.1567 90.0402 20.502C89.8629 20.8473 89.7742 21.244 89.7742 21.692C89.7742 22.14 89.8629 22.5367 90.0402 22.882C90.2176 23.2273 90.4602 23.498 90.7682 23.694C91.0856 23.89 91.4449 23.988 91.8462 23.988C92.2849 23.988 92.6676 23.8713 92.9942 23.638C93.3209 23.4047 93.5542 23.092 93.6942 22.7L95.3042 23.428C95.1549 23.8573 94.9122 24.2447 94.5762 24.59C94.2402 24.926 93.8389 25.192 93.3722 25.388C92.9056 25.5747 92.3969 25.668 91.8462 25.668ZM100.168 25.584C99.3091 25.584 98.6418 25.3507 98.1658 24.884C97.6991 24.408 97.4658 23.7407 97.4658 22.882V19.522H96.1498V17.884H96.2898C96.6631 17.884 96.9525 17.786 97.1578 17.59C97.3631 17.394 97.4658 17.1093 97.4658 16.736V16.148H99.2998V17.884H101.05V19.522H99.2998V22.784C99.2998 23.036 99.3418 23.2507 99.4258 23.428C99.5191 23.6053 99.6591 23.7407 99.8458 23.834C100.042 23.9273 100.289 23.974 100.588 23.974C100.653 23.974 100.728 23.9693 100.812 23.96C100.905 23.9507 100.994 23.9413 101.078 23.932V25.5C100.947 25.5187 100.798 25.5373 100.63 25.556C100.462 25.5747 100.308 25.584 100.168 25.584Z" fill="white"/>
<path d="M120 14V26M126 20H114" stroke="white" stroke-width="2" stroke-linecap="round" stroke-linejoin="round"/>
</svg>
