<svg width="90" height="40" viewBox="0 0 90 40" fill="none" xmlns="http://www.w3.org/2000/svg">
<rect x="0.5" y="0.5" width="89" height="39" rx="11.5" stroke="#B0B0B0"/>
<path d="M12.864 24.5V15.56H18.804V17H14.496V19.292H18.564V20.732H14.496V23.06H18.804V24.5H12.864ZM19.2807 24.5L21.5607 21.224L19.2687 17.972H21.1167L22.9047 20.612H22.0767L23.8647 17.972H25.7007L23.4207 21.224L25.6887 24.5H23.8527L22.0887 21.872H22.8927L21.1287 24.5H19.2807ZM26.5601 26.9V17.972H28.0361V19.268L27.8921 18.944C28.1161 18.592 28.4201 18.32 28.8041 18.128C29.1881 17.928 29.6321 17.828 30.1361 17.828C30.7521 17.828 31.3081 17.98 31.8041 18.284C32.3001 18.588 32.6921 18.996 32.9801 19.508C33.2761 20.02 33.4241 20.596 33.4241 21.236C33.4241 21.868 33.2801 22.444 32.9921 22.964C32.7041 23.484 32.3121 23.896 31.8161 24.2C31.3201 24.496 30.7561 24.644 30.1241 24.644C29.6521 24.644 29.2161 24.552 28.8161 24.368C28.4241 24.176 28.1121 23.904 27.8801 23.552L28.1321 23.24V26.9H26.5601ZM29.9441 23.204C30.3041 23.204 30.6241 23.12 30.9041 22.952C31.1841 22.784 31.4001 22.552 31.5521 22.256C31.7121 21.96 31.7921 21.62 31.7921 21.236C31.7921 20.852 31.7121 20.516 31.5521 20.228C31.4001 19.932 31.1841 19.7 30.9041 19.532C30.6241 19.356 30.3041 19.268 29.9441 19.268C29.6001 19.268 29.2881 19.352 29.0081 19.52C28.7361 19.688 28.5201 19.924 28.3601 20.228C28.2081 20.524 28.1321 20.86 28.1321 21.236C28.1321 21.62 28.2081 21.96 28.3601 22.256C28.5201 22.552 28.7361 22.784 29.0081 22.952C29.2881 23.12 29.6001 23.204 29.9441 23.204ZM37.8146 24.644C37.1746 24.644 36.5906 24.496 36.0626 24.2C35.5426 23.904 35.1266 23.5 34.8146 22.988C34.5106 22.476 34.3586 21.892 34.3586 21.236C34.3586 20.58 34.5106 19.996 34.8146 19.484C35.1266 18.972 35.5426 18.568 36.0626 18.272C36.5826 17.976 37.1666 17.828 37.8146 17.828C38.4546 17.828 39.0346 17.976 39.5546 18.272C40.0746 18.568 40.4866 18.972 40.7906 19.484C41.1026 19.988 41.2586 20.572 41.2586 21.236C41.2586 21.892 41.1026 22.476 40.7906 22.988C40.4786 23.5 40.0626 23.904 39.5426 24.2C39.0226 24.496 38.4466 24.644 37.8146 24.644ZM37.8146 23.204C38.1666 23.204 38.4746 23.12 38.7386 22.952C39.0106 22.784 39.2226 22.552 39.3746 22.256C39.5346 21.952 39.6146 21.612 39.6146 21.236C39.6146 20.852 39.5346 20.516 39.3746 20.228C39.2226 19.932 39.0106 19.7 38.7386 19.532C38.4746 19.356 38.1666 19.268 37.8146 19.268C37.4546 19.268 37.1386 19.356 36.8666 19.532C36.5946 19.7 36.3786 19.932 36.2186 20.228C36.0666 20.516 35.9906 20.852 35.9906 21.236C35.9906 21.612 36.0666 21.952 36.2186 22.256C36.3786 22.552 36.5946 22.784 36.8666 22.952C37.1386 23.12 37.4546 23.204 37.8146 23.204ZM42.4508 24.5V17.972H43.9268V19.424L43.8068 19.208C43.9588 18.72 44.1948 18.38 44.5148 18.188C44.8428 17.996 45.2348 17.9 45.6908 17.9H46.0748V19.292H45.5108C45.0628 19.292 44.7028 19.432 44.4308 19.712C44.1588 19.984 44.0228 20.368 44.0228 20.864V24.5H42.4508ZM50.0908 24.572C49.3548 24.572 48.7828 24.372 48.3748 23.972C47.9748 23.564 47.7748 22.992 47.7748 22.256V19.376H46.6468V17.972H46.7668C47.0868 17.972 47.3348 17.888 47.5108 17.72C47.6868 17.552 47.7748 17.308 47.7748 16.988V16.484H49.3468V17.972H50.8468V19.376H49.3468V22.172C49.3468 22.388 49.3828 22.572 49.4548 22.724C49.5348 22.876 49.6548 22.992 49.8148 23.072C49.9828 23.152 50.1948 23.192 50.4508 23.192C50.5068 23.192 50.5708 23.188 50.6428 23.18C50.7228 23.172 50.7988 23.164 50.8708 23.156V24.5C50.7588 24.516 50.6308 24.532 50.4868 24.548C50.3428 24.564 50.2108 24.572 50.0908 24.572Z" fill="#454545"/>
<path d="M74 19L70 23M70 23L66 19M70 23V11M79 23V25C79 26.1046 78.1046 27 77 27H63C61.8954 27 61 26.1046 61 25V23" stroke="#454545" stroke-width="1.4" stroke-linecap="round" stroke-linejoin="round"/>
</svg>
