<svg width="80" height="40" viewBox="0 0 80 40" fill="none" xmlns="http://www.w3.org/2000/svg">
<rect x="0.5" y="0.5" width="79" height="39" rx="11.5" stroke="#B0B0B0"/>
<path d="M12.864 24.5V15.56H18.828V17H14.496V19.472H18.288V20.912H14.496V24.5H12.864ZM19.7633 24.5V17.972H21.3353V24.5H19.7633ZM19.7633 17.24V15.56H21.3353V17.24H19.7633ZM22.7867 24.5V15.416H24.3587V24.5H22.7867ZM28.7861 24.572C28.0501 24.572 27.4781 24.372 27.0701 23.972C26.6701 23.564 26.4701 22.992 26.4701 22.256V19.376H25.3421V17.972H25.4621C25.7821 17.972 26.0301 17.888 26.2061 17.72C26.3821 17.552 26.4701 17.308 26.4701 16.988V16.484H28.0421V17.972H29.5421V19.376H28.0421V22.172C28.0421 22.388 28.0781 22.572 28.1501 22.724C28.2301 22.876 28.3501 22.992 28.5101 23.072C28.6781 23.152 28.8901 23.192 29.1461 23.192C29.2021 23.192 29.2661 23.188 29.3381 23.18C29.4181 23.172 29.4941 23.164 29.5661 23.156V24.5C29.4541 24.516 29.3261 24.532 29.1821 24.548C29.0381 24.564 28.9061 24.572 28.7861 24.572ZM33.8046 24.644C33.1326 24.644 32.5446 24.492 32.0406 24.188C31.5366 23.884 31.1446 23.472 30.8646 22.952C30.5846 22.432 30.4446 21.856 30.4446 21.224C30.4446 20.568 30.5846 19.988 30.8646 19.484C31.1526 18.972 31.5406 18.568 32.0286 18.272C32.5246 17.976 33.0766 17.828 33.6846 17.828C34.1966 17.828 34.6446 17.912 35.0286 18.08C35.4206 18.248 35.7526 18.48 36.0246 18.776C36.2966 19.072 36.5046 19.412 36.6486 19.796C36.7926 20.172 36.8646 20.58 36.8646 21.02C36.8646 21.132 36.8566 21.248 36.8406 21.368C36.8326 21.488 36.8126 21.592 36.7806 21.68H31.7406V20.48H35.8926L35.1486 21.044C35.2206 20.676 35.2006 20.348 35.0886 20.06C34.9846 19.772 34.8086 19.544 34.5606 19.376C34.3206 19.208 34.0286 19.124 33.6846 19.124C33.3566 19.124 33.0646 19.208 32.8086 19.376C32.5526 19.536 32.3566 19.776 32.2206 20.096C32.0926 20.408 32.0446 20.788 32.0766 21.236C32.0446 21.636 32.0966 21.992 32.2326 22.304C32.3766 22.608 32.5846 22.844 32.8566 23.012C33.1366 23.18 33.4566 23.264 33.8166 23.264C34.1766 23.264 34.4806 23.188 34.7286 23.036C34.9846 22.884 35.1846 22.68 35.3286 22.424L36.6006 23.048C36.4726 23.36 36.2726 23.636 36.0006 23.876C35.7286 24.116 35.4046 24.304 35.0286 24.44C34.6606 24.576 34.2526 24.644 33.8046 24.644ZM38.0562 24.5V17.972H39.5322V19.424L39.4122 19.208C39.5642 18.72 39.8002 18.38 40.1202 18.188C40.4482 17.996 40.8402 17.9 41.2962 17.9H41.6802V19.292H41.1162C40.6682 19.292 40.3082 19.432 40.0362 19.712C39.7642 19.984 39.6282 20.368 39.6282 20.864V24.5H38.0562Z" fill="#454545"/>
<path d="M52.0002 15H68.0002M55.0001 20H65.0001M59.0001 25H61.0001" stroke="#454545" stroke-width="1.4" stroke-linecap="round" stroke-linejoin="round"/>
</svg>
