<svg width="36" height="37" viewBox="0 0 36 37" fill="none" xmlns="http://www.w3.org/2000/svg">
<rect y="0.5" width="36" height="36" rx="9" fill="#F6F6F6"/>
<path d="M9 14.5L16.8906 19.7604C17.5624 20.2083 18.4376 20.2083 19.1094 19.7604L27 14.5M11 25.5H25C26.1046 25.5 27 24.6046 27 23.5V13.5C27 12.3954 26.1046 11.5 25 11.5H11C9.89543 11.5 9 12.3954 9 13.5V23.5C9 24.6046 9.89543 25.5 11 25.5Z" stroke="#454545" stroke-width="1.4" stroke-linecap="round" stroke-linejoin="round"/>
<rect x="19" y="4.5" width="13" height="12" rx="2" fill="#EA3030"/>
<path d="M23.4 13.5V12.82L25.032 11.076C25.352 10.7347 25.6027 10.46 25.784 10.252C25.9707 10.0387 26.104 9.852 26.184 9.692C26.2693 9.532 26.312 9.364 26.312 9.188C26.312 8.9 26.224 8.67867 26.048 8.524C25.872 8.364 25.6453 8.284 25.368 8.284C25.08 8.284 24.832 8.36667 24.624 8.532C24.416 8.692 24.272 8.92667 24.192 9.236L23.36 8.996C23.424 8.68133 23.552 8.40933 23.744 8.18C23.936 7.94533 24.1707 7.764 24.448 7.636C24.7307 7.508 25.0347 7.444 25.36 7.444C25.7387 7.444 26.0693 7.516 26.352 7.66C26.6347 7.79867 26.8533 7.99333 27.008 8.244C27.168 8.49467 27.248 8.78533 27.248 9.116C27.248 9.33467 27.2053 9.548 27.12 9.756C27.04 9.95867 26.9147 10.1747 26.744 10.404C26.5733 10.628 26.3547 10.8813 26.088 11.164L24.648 12.7H27.36V13.5H23.4Z" fill="white"/>
</svg>
