<svg width="142" height="45" viewBox="0 0 142 45" fill="none" xmlns="http://www.w3.org/2000/svg">
<rect width="142" height="45" rx="12" fill="#1A71F6"/>
<path d="M28.8443 28.168C28.1816 28.168 27.5656 28.0467 26.9963 27.804C26.4363 27.5613 25.951 27.2253 25.5403 26.796C25.139 26.3573 24.845 25.8487 24.6583 25.27L26.2403 24.584C26.4923 25.1813 26.8563 25.6527 27.3323 25.998C27.8083 26.334 28.345 26.502 28.9423 26.502C29.2783 26.502 29.5676 26.4507 29.8103 26.348C30.0623 26.236 30.2536 26.0867 30.3843 25.9C30.5243 25.7133 30.5943 25.4893 30.5943 25.228C30.5943 24.92 30.501 24.668 30.3143 24.472C30.137 24.2667 29.8663 24.108 29.5023 23.996L27.5003 23.352C26.6883 23.1 26.077 22.722 25.6663 22.218C25.2556 21.714 25.0503 21.1213 25.0503 20.44C25.0503 19.8427 25.195 19.3153 25.4843 18.858C25.783 18.4007 26.1936 18.046 26.7163 17.794C27.2483 17.5327 27.855 17.402 28.5363 17.402C29.1616 17.402 29.7356 17.514 30.2583 17.738C30.781 17.9527 31.229 18.256 31.6023 18.648C31.985 19.0307 32.2696 19.4833 32.4563 20.006L30.8883 20.706C30.683 20.1833 30.375 19.782 29.9643 19.502C29.5536 19.2127 29.0776 19.068 28.5363 19.068C28.219 19.068 27.939 19.124 27.6963 19.236C27.4536 19.3387 27.2623 19.488 27.1223 19.684C26.9916 19.8707 26.9263 20.0947 26.9263 20.356C26.9263 20.6453 27.0196 20.902 27.2063 21.126C27.393 21.3407 27.6776 21.5087 28.0603 21.63L29.9783 22.232C30.809 22.5027 31.4296 22.876 31.8403 23.352C32.2603 23.828 32.4703 24.416 32.4703 25.116C32.4703 25.7133 32.3163 26.2407 32.0083 26.698C31.7003 27.1553 31.2756 27.5147 30.7343 27.776C30.193 28.0373 29.563 28.168 28.8443 28.168ZM36.2724 28.168C35.7404 28.168 35.2784 28.0793 34.8864 27.902C34.4944 27.7247 34.1911 27.4727 33.9764 27.146C33.7617 26.81 33.6544 26.4227 33.6544 25.984C33.6544 25.564 33.7477 25.1907 33.9344 24.864C34.1211 24.528 34.4104 24.248 34.8024 24.024C35.1944 23.8 35.6891 23.6413 36.2864 23.548L38.7784 23.142V24.542L36.6364 24.906C36.2724 24.9713 36.0017 25.088 35.8244 25.256C35.6471 25.424 35.5584 25.6433 35.5584 25.914C35.5584 26.1753 35.6564 26.3853 35.8524 26.544C36.0577 26.6933 36.3097 26.768 36.6084 26.768C36.9911 26.768 37.3271 26.6887 37.6164 26.53C37.9151 26.362 38.1437 26.1333 38.3024 25.844C38.4704 25.5547 38.5544 25.2373 38.5544 24.892V22.932C38.5544 22.6053 38.4237 22.3347 38.1624 22.12C37.9104 21.896 37.5744 21.784 37.1544 21.784C36.7624 21.784 36.4124 21.8913 36.1044 22.106C35.8057 22.3113 35.5864 22.5867 35.4464 22.932L33.9484 22.204C34.0977 21.8027 34.3311 21.4573 34.6484 21.168C34.9751 20.8693 35.3577 20.636 35.7964 20.468C36.2351 20.3 36.7111 20.216 37.2244 20.216C37.8497 20.216 38.4004 20.3327 38.8764 20.566C39.3524 20.79 39.7211 21.1073 39.9824 21.518C40.2531 21.9193 40.3884 22.3907 40.3884 22.932V28H38.6524V26.698L39.0444 26.67C38.8484 26.9967 38.6151 27.272 38.3444 27.496C38.0737 27.7107 37.7657 27.8787 37.4204 28C37.0751 28.112 36.6924 28.168 36.2724 28.168ZM44.2428 28L41.2468 20.384H43.2488L45.4188 26.376H44.6768L46.8608 20.384H48.8628L45.8668 28H44.2428ZM53.3517 28.168C52.5677 28.168 51.8817 27.9907 51.2937 27.636C50.7057 27.2813 50.2484 26.8007 49.9217 26.194C49.5951 25.5873 49.4317 24.9153 49.4317 24.178C49.4317 23.4127 49.5951 22.736 49.9217 22.148C50.2577 21.5507 50.7104 21.0793 51.2797 20.734C51.8584 20.3887 52.5024 20.216 53.2117 20.216C53.8091 20.216 54.3317 20.314 54.7797 20.51C55.2371 20.706 55.6244 20.9767 55.9417 21.322C56.2591 21.6673 56.5017 22.064 56.6697 22.512C56.8377 22.9507 56.9217 23.4267 56.9217 23.94C56.9217 24.0707 56.9124 24.206 56.8937 24.346C56.8844 24.486 56.8611 24.6073 56.8237 24.71H50.9437V23.31H55.7877L54.9197 23.968C55.0037 23.5387 54.9804 23.156 54.8497 22.82C54.7284 22.484 54.5231 22.218 54.2337 22.022C53.9537 21.826 53.6131 21.728 53.2117 21.728C52.8291 21.728 52.4884 21.826 52.1897 22.022C51.8911 22.2087 51.6624 22.4887 51.5037 22.862C51.3544 23.226 51.2984 23.6693 51.3357 24.192C51.2984 24.6587 51.3591 25.074 51.5177 25.438C51.6857 25.7927 51.9284 26.068 52.2457 26.264C52.5724 26.46 52.9457 26.558 53.3657 26.558C53.7857 26.558 54.1404 26.4693 54.4297 26.292C54.7284 26.1147 54.9617 25.8767 55.1297 25.578L56.6137 26.306C56.4644 26.67 56.2311 26.992 55.9137 27.272C55.5964 27.552 55.2184 27.7713 54.7797 27.93C54.3504 28.0887 53.8744 28.168 53.3517 28.168ZM63.4426 28V17.57H67.3346C68.0439 17.57 68.6692 17.7007 69.2106 17.962C69.7612 18.214 70.1906 18.5873 70.4986 19.082C70.8066 19.5673 70.9606 20.16 70.9606 20.86C70.9606 21.5507 70.8019 22.1433 70.4846 22.638C70.1766 23.1233 69.7519 23.4967 69.2106 23.758C68.6692 24.0193 68.0439 24.15 67.3346 24.15H65.3466V28H63.4426ZM65.3466 22.47H67.3626C67.7079 22.47 68.0066 22.4047 68.2586 22.274C68.5106 22.134 68.7066 21.9427 68.8466 21.7C68.9866 21.4573 69.0566 21.1773 69.0566 20.86C69.0566 20.5333 68.9866 20.2533 68.8466 20.02C68.7066 19.7773 68.5106 19.5907 68.2586 19.46C68.0066 19.32 67.7079 19.25 67.3626 19.25H65.3466V22.47ZM72.3667 28V20.384H74.0887V22.078L73.9487 21.826C74.126 21.2567 74.4014 20.86 74.7747 20.636C75.1574 20.412 75.6147 20.3 76.1467 20.3H76.5947V21.924H75.9367C75.414 21.924 74.994 22.0873 74.6767 22.414C74.3594 22.7313 74.2007 23.1793 74.2007 23.758V28H72.3667ZM81.327 28.168C80.5804 28.168 79.899 27.9953 79.283 27.65C78.6764 27.3047 78.191 26.8333 77.827 26.236C77.4724 25.6387 77.295 24.9573 77.295 24.192C77.295 23.4267 77.4724 22.7453 77.827 22.148C78.191 21.5507 78.6764 21.0793 79.283 20.734C79.8897 20.3887 80.571 20.216 81.327 20.216C82.0737 20.216 82.7504 20.3887 83.357 20.734C83.9637 21.0793 84.4444 21.5507 84.799 22.148C85.163 22.736 85.345 23.4173 85.345 24.192C85.345 24.9573 85.163 25.6387 84.799 26.236C84.435 26.8333 83.9497 27.3047 83.343 27.65C82.7364 27.9953 82.0644 28.168 81.327 28.168ZM81.327 26.488C81.7377 26.488 82.097 26.39 82.405 26.194C82.7224 25.998 82.9697 25.7273 83.147 25.382C83.3337 25.0273 83.427 24.6307 83.427 24.192C83.427 23.744 83.3337 23.352 83.147 23.016C82.9697 22.6707 82.7224 22.4 82.405 22.204C82.097 21.9987 81.7377 21.896 81.327 21.896C80.907 21.896 80.5384 21.9987 80.221 22.204C79.9037 22.4 79.6517 22.6707 79.465 23.016C79.2877 23.352 79.199 23.744 79.199 24.192C79.199 24.6307 79.2877 25.0273 79.465 25.382C79.6517 25.7273 79.9037 25.998 80.221 26.194C80.5384 26.39 80.907 26.488 81.327 26.488ZM90.2778 28.168C89.5405 28.168 88.8825 27.9953 88.3038 27.65C87.7252 27.2953 87.2678 26.8147 86.9318 26.208C86.5958 25.6013 86.4278 24.9293 86.4278 24.192C86.4278 23.4453 86.5958 22.7733 86.9318 22.176C87.2678 21.5787 87.7252 21.1027 88.3038 20.748C88.8918 20.3933 89.5452 20.216 90.2638 20.216C90.8425 20.216 91.3558 20.3327 91.8038 20.566C92.2612 20.79 92.6205 21.1073 92.8818 21.518L92.6018 21.896V17.402H94.4358V28H92.6998V26.53L92.8958 26.894C92.6345 27.3047 92.2705 27.622 91.8038 27.846C91.3372 28.0607 90.8285 28.168 90.2778 28.168ZM90.4738 26.488C90.8938 26.488 91.2625 26.39 91.5798 26.194C91.8972 25.998 92.1445 25.7273 92.3218 25.382C92.5085 25.0367 92.6018 24.64 92.6018 24.192C92.6018 23.7533 92.5085 23.3613 92.3218 23.016C92.1445 22.6613 91.8972 22.386 91.5798 22.19C91.2625 21.994 90.8938 21.896 90.4738 21.896C90.0632 21.896 89.6945 21.9987 89.3678 22.204C89.0412 22.4 88.7845 22.6707 88.5978 23.016C88.4205 23.352 88.3318 23.744 88.3318 24.192C88.3318 24.64 88.4205 25.0367 88.5978 25.382C88.7845 25.7273 89.0412 25.998 89.3678 26.194C89.6945 26.39 90.0632 26.488 90.4738 26.488ZM98.8581 28.168C98.2701 28.168 97.7568 28.0373 97.3181 27.776C96.8888 27.5147 96.5574 27.1507 96.3241 26.684C96.1001 26.2173 95.9881 25.6713 95.9881 25.046V20.384H97.8221V24.892C97.8221 25.2093 97.8828 25.4893 98.0041 25.732C98.1348 25.9653 98.3168 26.152 98.5501 26.292C98.7928 26.4227 99.0634 26.488 99.3621 26.488C99.6608 26.488 99.9268 26.4227 100.16 26.292C100.393 26.152 100.575 25.9607 100.706 25.718C100.837 25.4753 100.902 25.186 100.902 24.85V20.384H102.736V28H101V26.502L101.154 26.768C100.977 27.2347 100.683 27.5847 100.272 27.818C99.8708 28.0513 99.3994 28.168 98.8581 28.168ZM108.109 28.168C107.353 28.168 106.672 27.9953 106.065 27.65C105.468 27.2953 104.996 26.8193 104.651 26.222C104.306 25.6153 104.133 24.934 104.133 24.178C104.133 23.422 104.306 22.7453 104.651 22.148C104.996 21.5507 105.468 21.0793 106.065 20.734C106.672 20.3887 107.353 20.216 108.109 20.216C108.65 20.216 109.154 20.314 109.621 20.51C110.088 20.6967 110.489 20.958 110.825 21.294C111.17 21.6207 111.418 22.0127 111.567 22.47L109.957 23.17C109.817 22.7873 109.579 22.4793 109.243 22.246C108.916 22.0127 108.538 21.896 108.109 21.896C107.708 21.896 107.348 21.994 107.031 22.19C106.723 22.386 106.48 22.6567 106.303 23.002C106.126 23.3473 106.037 23.744 106.037 24.192C106.037 24.64 106.126 25.0367 106.303 25.382C106.48 25.7273 106.723 25.998 107.031 26.194C107.348 26.39 107.708 26.488 108.109 26.488C108.548 26.488 108.93 26.3713 109.257 26.138C109.584 25.9047 109.817 25.592 109.957 25.2L111.567 25.928C111.418 26.3573 111.175 26.7447 110.839 27.09C110.503 27.426 110.102 27.692 109.635 27.888C109.168 28.0747 108.66 28.168 108.109 28.168ZM116.43 28.084C115.572 28.084 114.904 27.8507 114.428 27.384C113.962 26.908 113.728 26.2407 113.728 25.382V22.022H112.412V20.384H112.552C112.926 20.384 113.215 20.286 113.42 20.09C113.626 19.894 113.728 19.6093 113.728 19.236V18.648H115.562V20.384H117.312V22.022H115.562V25.284C115.562 25.536 115.604 25.7507 115.688 25.928C115.782 26.1053 115.922 26.2407 116.108 26.334C116.304 26.4273 116.552 26.474 116.85 26.474C116.916 26.474 116.99 26.4693 117.074 26.46C117.168 26.4507 117.256 26.4413 117.34 26.432V28C117.21 28.0187 117.06 28.0373 116.892 28.056C116.724 28.0747 116.57 28.084 116.43 28.084Z" fill="white"/>
</svg>
